<svg width="295" height="543" viewBox="0 0 295 543" fill="none" xmlns="http://www.w3.org/2000/svg">
<path d="M318.159 99.0609C352.328 -87.2168 238.713 -87.2168 272.882 99.0609C238.713 -87.2168 133.742 -40.0683 231.033 117.858C133.742 -40.0683 53.4128 47.0573 199.02 152.579C53.4128 47.0573 9.94204 160.909 181.69 197.946C9.94204 160.886 9.94204 284.114 181.69 247.054C9.94204 284.114 53.4333 397.943 199.02 292.421C53.4333 397.943 133.763 485.068 231.033 327.142C133.742 485.046 238.713 532.195 272.861 345.939C238.692 532.217 352.308 532.217 318.139 345.939C352.308 532.217 457.258 485.046 359.967 327.142C457.258 485.046 537.587 397.92 391.98 292.421C537.567 397.943 581.037 284.091 409.31 247.054C581.058 284.114 581.058 160.886 409.31 197.946C581.058 160.886 537.567 47.0573 391.98 152.579C537.567 47.0573 457.237 -40.0683 359.967 117.858C457.258 -40.046 352.287 -87.1945 318.139 99.0609H318.159Z" fill="#6750A4"/>
</svg>
