<svg width="294" height="542" viewBox="0 0 294 542" fill="none" xmlns="http://www.w3.org/2000/svg">
<path d="M408.136 77.9613C393.813 53.311 379.236 28.319 359.871 8.74524C340.506 -10.8774 315.42 -24.7401 289.698 -22.934C267.113 -21.3232 246.18 -7.75336 229.654 9.96555C213.127 27.6845 200.288 49.5036 187.66 71.1275C153.506 129.507 119.31 187.887 85.1559 246.315C68.9264 274.041 52.2732 302.986 47.7814 336.033C42.3575 375.961 56.9767 416.622 82.91 443.176C110.03 470.95 153.972 468.705 186.982 461.09C223.17 452.743 258.553 437.025 295.461 437.074C327.073 437.074 357.625 448.692 388.389 457.136C419.111 465.532 452.121 470.706 481.783 458.21C518.606 442.736 545.048 398.756 544.328 353.605C543.65 312.407 503.14 241.336 503.14 241.336C503.14 241.336 439.797 132.424 408.136 77.9613Z" fill="#6750A4"/>
</svg>
