<svg width="297" height="488" viewBox="0 0 297 488" fill="none" xmlns="http://www.w3.org/2000/svg">
<path d="M114.136 176.961C99.813 152.311 85.2361 127.319 65.8709 107.745C46.5057 88.1226 21.4199 74.2599 -4.30153 76.066C-26.8872 77.6768 -47.8203 91.2466 -64.3465 108.966C-80.8726 126.684 -93.7121 148.504 -106.34 170.128C-140.494 228.507 -174.69 286.887 -208.844 345.315C-225.074 373.041 -241.727 401.986 -246.219 435.033C-251.643 474.961 -237.023 515.622 -211.09 542.176C-183.97 569.95 -140.028 567.705 -107.018 560.09C-70.8298 551.743 -35.447 536.025 1.46138 536.074C33.0729 536.074 63.625 547.692 94.389 556.136C125.111 564.532 158.121 569.706 187.783 557.21C224.606 541.736 251.048 497.756 250.328 452.605C249.65 411.407 209.14 340.336 209.14 340.336C209.14 340.336 145.797 231.424 114.136 176.961Z" fill="#6750A4"/>
</svg>
