<svg width="296" height="472" viewBox="0 0 296 472" fill="none" xmlns="http://www.w3.org/2000/svg">
<path d="M23.1594 197.061C57.3282 10.7832 -56.2872 10.7832 -22.1184 197.061C-56.2872 10.7832 -161.258 57.9317 -63.9669 215.858C-161.258 57.9317 -241.587 145.057 -95.9797 250.579C-241.587 145.057 -285.058 258.909 -113.31 295.946C-285.058 258.886 -285.058 382.114 -113.31 345.054C-285.058 382.114 -241.567 495.943 -95.9797 390.421C-241.567 495.943 -161.237 583.068 -63.9669 425.142C-161.258 583.046 -56.2872 630.195 -22.1389 443.939C-56.3077 630.217 57.3076 630.217 23.1389 443.939C57.3076 630.217 162.258 583.046 64.9669 425.142C162.258 583.046 242.587 495.92 96.9796 390.421C242.567 495.943 286.037 382.091 114.31 345.054C286.058 382.114 286.058 258.886 114.31 295.946C286.058 258.886 242.567 145.057 96.9796 250.579C242.567 145.057 162.237 57.9317 64.9669 215.858C162.258 57.954 57.2871 10.8055 23.1389 197.061H23.1594Z" fill="#6750A4"/>
</svg>
